<svg xmlns="http://www.w3.org/2000/svg" viewBox="0 0 727.76 97.93"><defs><style>.cls-1{fill:#231f20;}.cls-2{fill:#208bc3;}</style></defs><title>Asset 1</title><g id="Layer_2" data-name="Layer 2"><g id="Layer_1-2" data-name="Layer 1"><path class="cls-1" d="M153.3,60.36c0-15.27,11.6-27.7,25.93-27.7a24.23,24.23,0,0,1,10.66,2.49,6.61,6.61,0,0,1,3.91,6.16,6.42,6.42,0,0,1-.71,3A6.67,6.67,0,0,1,184,47.58a11.06,11.06,0,0,0-4.74-1.07c-6.63,0-12.08,6.16-12.08,13.85S172.6,74.1,179.23,74.1A11.06,11.06,0,0,0,184,73a6.14,6.14,0,0,1,2.84-.59,6.9,6.9,0,0,1,6.27,3.91,6.42,6.42,0,0,1,.71,3,6.9,6.9,0,0,1-3.91,6.27,25.85,25.85,0,0,1-10.66,2.37C164.91,87.95,153.3,75.52,153.3,60.36Z"/><path class="cls-1" d="M229.37,39.64a6.87,6.87,0,0,1-6.87,6.87c-2.25,0-5.21.35-6.39,2.13a4.25,4.25,0,0,0-.47,1.3V81.08a6.93,6.93,0,0,1-13.85,0V39.64a6.9,6.9,0,0,1,6.87-7,6.58,6.58,0,0,1,4.5,1.66,24.46,24.46,0,0,1,9.35-1.66A6.9,6.9,0,0,1,229.37,39.64Z"/><path class="cls-1" d="M287.84,60.36a27.64,27.64,0,1,1-27.7-27.7A27.71,27.71,0,0,1,287.84,60.36Zm-13.85,0A13.79,13.79,0,1,0,260.14,74.1,13.79,13.79,0,0,0,274,60.36Z"/><path class="cls-1" d="M363.89,39.64a7.42,7.42,0,0,1-.36,2.25L349,83.33a6.9,6.9,0,0,1-13,0l-8.05-23-8.05,23a6.9,6.9,0,0,1-13,0L292.26,41.89a7.45,7.45,0,0,1-.36-2.25,6.75,6.75,0,0,1,4.62-6.51,7.63,7.63,0,0,1,2.37-.35,6.61,6.61,0,0,1,6.39,4.5l8.05,22.85,7.93-22.85a6.71,6.71,0,0,1,6.39-4.62h.47a6.89,6.89,0,0,1,6.28,4.62l8,22.85,8.05-22.85a6.61,6.61,0,0,1,6.39-4.5,8.2,8.2,0,0,1,2.37.35A6.86,6.86,0,0,1,363.89,39.64Z"/><path class="cls-1" d="M395.61,32.66a27.27,27.27,0,0,1,13.85,3.79V11.94a6.93,6.93,0,0,1,13.85,0V81.08a7,7,0,0,1-13.26,2.84,28.12,28.12,0,0,1-14.44,4,27.64,27.64,0,0,1,0-55.29Zm0,41.44a13.79,13.79,0,1,0-13.73-13.73A13.77,13.77,0,0,0,395.61,74.1Z"/><path class="cls-2" d="M485,60.36c0,15.15-11.6,27.59-25.81,27.59a24.12,24.12,0,0,1-12.91-3.67,7,7,0,0,1-6.16,3.67,6.87,6.87,0,0,1-6.87-6.87V11.94a6.93,6.93,0,0,1,13.85,0V35.85a24.5,24.5,0,0,1,12.08-3.2C473.37,32.66,485,45.09,485,60.36Zm-13.73,0c0-7.7-5.45-13.85-12.08-13.85s-12.08,6.16-12.08,13.85,5.33,13.73,12.08,13.73S471.24,67.94,471.24,60.36Z"/><path class="cls-2" d="M520.61,39.64a6.87,6.87,0,0,1-6.87,6.87c-2.25,0-5.21.35-6.39,2.13a4.24,4.24,0,0,0-.47,1.3V81.08a6.93,6.93,0,0,1-13.85,0V39.64a6.9,6.9,0,0,1,6.87-7,6.58,6.58,0,0,1,4.5,1.66,24.46,24.46,0,0,1,9.35-1.66A6.9,6.9,0,0,1,520.61,39.64Z"/><path class="cls-2" d="M547.8,87.83A23.74,23.74,0,0,1,530,79.07c-3.91-5-5.92-11.48-5.92-18.82,0-15.27,10.89-27.59,24.15-27.59a22.77,22.77,0,0,1,17.29,7.81,27.1,27.1,0,0,1,6.87,18.59,7,7,0,0,1-6.87,7H538.68c1.18,3.79,3.79,7.81,9.83,8.05h.71A13.2,13.2,0,0,0,557.27,72a7.34,7.34,0,0,1,3.79-1.07,6.89,6.89,0,0,1,5.8,3.08A5.91,5.91,0,0,1,568,77.65a7.21,7.21,0,0,1-3.2,5.92,27,27,0,0,1-14.92,4.38A10.28,10.28,0,0,1,547.8,87.83Zm9.35-35.64a9.84,9.84,0,0,0-8.88-5.8c-3.31,0-6.39,2.37-8.29,5.8Z"/><path class="cls-2" d="M626.25,81.08a7,7,0,0,1-6.87,6.87,6.77,6.77,0,0,1-6.16-3.79A30.31,30.31,0,0,1,605.05,87a41.67,41.67,0,0,1-7.46.83c-10.06,0-17-5.09-19.18-14.09a15.39,15.39,0,0,1,2.6-13c2.72-3.55,8.41-7.81,21.19-8.29,1.78,0,3.43-.12,5.21-.12a31,31,0,0,1,4.5.24c-.36-1.89-1.18-3.91-2.37-4.62a12.84,12.84,0,0,0-5.92-1.42,19.61,19.61,0,0,0-11.48,4,6.86,6.86,0,0,1-11.25-5.33,6.73,6.73,0,0,1,2.49-5.33,30.94,30.94,0,0,1,16.93-7,30.19,30.19,0,0,1,16,3c9.47,5.33,9.83,17.76,9.83,19.06V73.5ZM611.45,66.4a28.83,28.83,0,0,0-4-.24c-1.54,0-3.2,0-6,.12-5.45.24-8.52,1.66-9.35,2.72a1.77,1.77,0,0,0-.35.95,5.12,5.12,0,0,1,.12.59c.36,1.42.83,3.43,5.8,3.43a23,23,0,0,0,4.5-.47.89.89,0,0,1,.47-.12,11.92,11.92,0,0,0,8.29-5.56Z"/><path class="cls-2" d="M678.5,76.11a6.6,6.6,0,0,1,2,5,6.86,6.86,0,0,1-11.72,4.85l-19.3-19.3V81.08a7,7,0,0,1-7,6.87,6.87,6.87,0,0,1-6.87-6.87V11.94a6.87,6.87,0,0,1,6.87-6.87,7,7,0,0,1,7,6.87V54l19.3-19.3a6.79,6.79,0,0,1,4.85-1.89,7,7,0,0,1,4.85,1.89,7.4,7.4,0,0,1,2,5,6.91,6.91,0,0,1-2,4.85L662.64,60.36Z"/><path class="cls-2" d="M727.76,67.23v1.3A18.27,18.27,0,0,1,722.9,81c-4.14,4.5-10.18,7-17.17,7-7.81,0-14.92-3.91-18.47-10.06a7.59,7.59,0,0,1-.95-3.55,6.76,6.76,0,0,1,3.43-5.92,7.13,7.13,0,0,1,3.43-.95,7.06,7.06,0,0,1,6,3.55c1.3,2.25,4.26,3.08,6.51,3.08,3.08,0,5.56-.83,7-2.49a4.29,4.29,0,0,0,1.3-3.2c-.59-1.42-5.68-3.91-9.71-4.85a.71.71,0,0,1-.47-.12c-7-2-15.39-6.63-15.39-17.17,0-9.23,8.52-16.1,19.89-16.1a21.7,21.7,0,0,1,11.13,3.2,6.89,6.89,0,0,1-3.55,12.79,7.35,7.35,0,0,1-3.79-1.07A7.34,7.34,0,0,0,708.34,44c-4.26,0-6,1.78-6,2.25,0,.83,0,2.37,5.21,3.91a45.35,45.35,0,0,1,8.52,3C725.15,57.52,727.4,63.2,727.76,67.23Z"/><circle class="cls-1" cx="43.4" cy="42.44" r="20.61"/><circle class="cls-1" cx="73.84" cy="12" r="12"/><circle class="cls-1" cx="52.62" cy="81.87" r="9.22"/><circle class="cls-1" cx="6.66" cy="35.78" r="6.66"/><path class="cls-1" d="M50.06,22.93s12.86,3.63,12-8.71l9.58,9.57s-12.09-1.08-10.79,7.68"/><path class="cls-1" d="M37.46,62.17s12.77,2.91,7.9,14l10.49-3s-9.11-7.86-1-13.64"/><path class="cls-1" d="M23.45,47.6s-1.71-10.27-12.8-6.5l2.61-6.21s7.56,5.3,12.15-2.5"/><path class="cls-1" d="M58,57s3.22-4,24.2-4V42S64.5,44,62.91,35.78"/><path class="cls-1" d="M85.78,42S73,42.57,65.56,39.62l2.79,5.75,16.27-.14Z"/><path class="cls-1" d="M79.4,41.92"/><path class="cls-1" d="M139,42H128.59l3.66-11.38q1.08-4.33-.2-5.49t-5.28-.95a5.16,5.16,0,0,0-5.08,4.27L117.35,42H106q3.66-11.79,3.52-13.62A4,4,0,0,0,108,25.44q-1.36-1.08-4.68-1.08t-4.54,4.34L95.13,42H85.78c-.88,0-3.07,0-4.33,0a5.32,5.32,0,0,0-5,4.72q-.68,5.42,5.56,6.23H92.82L87.27,67.71H78.05q-4.34-.41-5.83,2.71A6.25,6.25,0,0,0,71.89,76q1.15,2.44,5.35,2.71h7.32L80.08,92.24q-.68,4.06,1.63,5a8.35,8.35,0,0,0,5.08.34,5.84,5.84,0,0,0,4.13-3.73q3.25-9.76,4.47-15.18h11.92q0,.68-3.93,15,.27,4.2,5.15,4.2,5.28,0,6.5-4.47l4.06-14.77h11.25q5,0,6.44-3a6.73,6.73,0,0,0,.54-5.35q-.88-2.37-4.95-2.64h-11l4.74-14.77,12.33-.14q5.15.27,5.15-7.45Q143.64,42,139,42ZM109.89,67.71H98l5.69-14.77H115Z"/></g></g></svg>