<svg viewBox="0 0 152 28" xmlns="http://www.w3.org/2000/svg">
  <g fill="none" fill-rule="evenodd">
    <path d="M9 16h2a1 1 0 0 1 1 1v2a1 1 0 0 1-1 1H9a1 1 0 0 1-1-1v-2a1 1 0 0 1 1-1zm0 8h2a1 1 0 0 1 1 1v2a1 1 0 0 1-1 1H9a1 1 0 0 1-1-1v-2a1 1 0 0 1 1-1zM9 0h2a1 1 0 0 1 1 1v2a1 1 0 0 1-1 1H9a1 1 0 0 1-1-1V1a1 1 0 0 1 1-1zm0 8h2a1 1 0 0 1 1 1v2a1 1 0 0 1-1 1H9a1 1 0 0 1-1-1V9a1 1 0 0 1 1-1zm-8 8h2a1 1 0 0 1 1 1v2a1 1 0 0 1-1 1H1a1 1 0 0 1-1-1v-2a1 1 0 0 1 1-1zm0-8h2a1 1 0 0 1 1 1v2a1 1 0 0 1-1 1H1a1 1 0 0 1-1-1V9a1 1 0 0 1 1-1zm24 8h2a1 1 0 0 1 1 1v2a1 1 0 0 1-1 1h-2a1 1 0 0 1-1-1v-2a1 1 0 0 1 1-1zm0-8h2a1 1 0 0 1 1 1v2a1 1 0 0 1-1 1h-2a1 1 0 0 1-1-1V9a1 1 0 0 1 1-1zm-8 8h2a1 1 0 0 1 1 1v2a1 1 0 0 1-1 1h-2a1 1 0 0 1-1-1v-2a1 1 0 0 1 1-1zm0 8h2a1 1 0 0 1 1 1v2a1 1 0 0 1-1 1h-2a1 1 0 0 1-1-1v-2a1 1 0 0 1 1-1zm0-24h2a1 1 0 0 1 1 1v2a1 1 0 0 1-1 1h-2a1 1 0 0 1-1-1V1a1 1 0 0 1 1-1zm0 8h2a1 1 0 0 1 1 1v2a1 1 0 0 1-1 1h-2a1 1 0 0 1-1-1V9a1 1 0 0 1 1-1z" fill="#1E9CEA"/>
    <path d="M44.76 19.21c-2.744 0-3.99-2.072-3.99-4.942 0-3.024 1.33-4.998 4.088-4.998 1.96 0 3.388 1.176 3.514 3.052h-1.82c-.098-1.008-.742-1.512-1.82-1.512-1.162 0-2.002.77-2.002 1.96v2.912c0 1.148.91 1.988 2.058 1.988 1.134 0 1.736-.462 1.918-1.582h1.82c-.294 2.184-1.778 3.122-3.766 3.122zm9.401-3.864h-1.162V19h-1.82V9.48h3.878c2.016 0 2.982.952 2.982 2.94 0 1.498-.77 2.422-2.044 2.772L58.179 19h-2.016l-2.002-3.654zm-1.162-1.498h2.296c.588 0 .854-.322.854-.952v-.98c0-.63-.224-.896-.854-.896h-2.296v2.828zm16.009.392c0 3.248-1.554 4.97-4.242 4.97-2.688 0-4.242-1.722-4.242-4.97 0-3.248 1.554-4.97 4.242-4.97 2.688 0 4.242 1.722 4.242 4.97zm-4.242 3.43c1.26 0 2.282-.7 2.282-1.96v-2.94c0-1.26-1.022-1.96-2.282-1.96s-2.282.7-2.282 1.96v2.94c0 1.26 1.022 1.96 2.282 1.96zm9.681-.63h.056l1.428-7.56h2.478l1.428 7.56h.056l1.498-7.56h1.988L81.083 19h-2.478l-1.414-7.462h-.056L75.707 19h-2.45l-2.31-9.52h2.03l1.47 7.56zM85.92 9.48h3.22c3.01 0 4.228 1.568 4.228 4.76 0 3.192-1.218 4.76-4.228 4.76h-3.22V9.48zm3.22 1.54h-1.4v6.44h1.4c1.498 0 2.338-.588 2.338-1.848v-2.744c0-1.26-.84-1.848-2.338-1.848zm11.375 0h-2.478v2.296h2.478c.588 0 .784-.28.784-.84v-.728c0-.504-.252-.728-.784-.728zm1.232 3.024c.994.28 1.652 1.036 1.652 2.184 0 2.03-1.218 2.772-3.052 2.772h-4.13V9.48h4.06c1.722 0 2.912.672 2.912 2.408 0 1.078-.546 1.82-1.442 2.156zm-.238 2.562v-.938c0-.56-.28-.812-.84-.812h-2.632v2.604h2.576c.602 0 .896-.252.896-.854zm7.721-1.26h-1.162V19h-1.82V9.48h3.878c2.016 0 2.982.952 2.982 2.94 0 1.498-.77 2.422-2.044 2.772L113.248 19h-2.016l-2.002-3.654zm-1.162-1.498h2.296c.588 0 .854-.322.854-.952v-.98c0-.63-.224-.896-.854-.896h-2.296v2.828zM115.999 19V9.48h6.552v1.54h-4.732v2.338h4.088v1.54h-4.088v2.562h4.732V19h-6.552zm14.945 0l-.63-2.03h-3.248L126.45 19h-1.96l3.248-9.52h1.932l3.234 9.52h-1.96zm-2.198-7.322h-.056l-1.148 3.752h2.31l-1.106-3.752zM140.765 19l-3.668-5.082 3.43-4.438h2.142l-3.57 4.438L142.865 19h-2.1zm-3.696-9.52V19h-1.82V9.48h1.82zm11.011 1.288c-1.008 0-1.624.434-1.624 1.12 0 .728.448 1.064 1.358 1.302l1.624.42c1.624.42 2.464 1.232 2.464 2.8 0 1.75-1.498 2.8-3.682 2.8-2.114 0-3.696-.84-3.864-3.052h1.82c.154 1.12.896 1.554 2.016 1.554 1.064 0 1.89-.462 1.89-1.288 0-.672-.42-1.05-1.274-1.274l-1.862-.49c-1.554-.406-2.31-1.358-2.31-2.758 0-1.54 1.344-2.632 3.472-2.632 1.96 0 3.36.882 3.556 2.87h-1.82c-.112-1.064-.896-1.372-1.764-1.372z" fill="#212529"/>
  </g>
</svg>
