<svg width="67px" height="32px" viewBox="0 0 67 32" xmlns="http://www.w3.org/2000/svg" xmlns:xlink="http://www.w3.org/1999/xlink">
  <defs>
    <path id="a" d="M.028 25.967V.017h34.055v25.95z"/>
  </defs>
  <g fill="none" fill-rule="evenodd">
    <path d="M21.6 19.2s-5.617-7.832 0-19.2H0v19.2h21.6M47.437 19.2c-2.81-4.592-2.625-8.71-2.625-8.71L44.8 0h21.6l-.017 19.199-18.946.001" fill="#D8232A"/>
    <path d="M25.6 0s-2.473 4.38-2.567 8.5h2.287v1.988h-2.38s-.187 4.12 2.66 8.712h-2.31s-5.602-7.836 0-19.2h2.31M34.41 19.2h2.182v-8.711h2.329v-1.99h-2.292C36.723 4.38 39.2 0 39.2 0h-2.312c-1.779 3.603-2.43 6.852-2.488 9.609l.01 9.591M42.14 10.49s-.188 4.118 2.66 8.71h-2.312s-2.613-3.654-2.483-9.59V0h2.123l.012 10.49M27.2 19.2h2.4V0h-2.4z" fill="#1A1919"/>
    <g>
      <mask id="b" fill="#fff">
        <use xlink:href="#a"/>
      </mask>
      <path d="M32.582.017H30.3s3.586 4.706 0 9.457h2.282s3.378-4.466 0-9.457M.438 23.609c0-.785 0-.927-.01-1.087-.01-.171-.05-.252-.216-.287a.961.961 0 0 0-.171-.016c-.02 0-.041-.01-.041-.03 0-.03.025-.04.08-.04.227 0 .543.015.569.015.035 0 1.035 0 1.151-.005.095-.005.176-.016.216-.025.025-.006.046-.024.07-.024.016 0 .02.018.02.044 0 .035-.025.096-.04.237-.004.05-.015.271-.025.332-.005.025-.015.056-.035.056-.03 0-.04-.026-.04-.066a.54.54 0 0 0-.03-.182c-.036-.08-.085-.14-.357-.17-.086-.01-.634-.015-.689-.015-.02 0-.03.016-.03.05v1.387c0 .036.005.051.03.051.065 0 .683 0 .8-.01.12-.01.19-.021.235-.07.036-.04.056-.065.076-.065.015 0 .025.01.025.04 0 .028-.025.115-.04.282-.01.102-.02.285-.02.32 0 .042 0 .097-.035.097-.025 0-.036-.02-.036-.046 0-.05 0-.101-.02-.166-.02-.07-.065-.154-.261-.175a12.507 12.507 0 0 0-.72-.025c-.024 0-.034.015-.034.035v.443c0 .17-.005.753 0 .86.015.347.09.412.583.412.13 0 .352 0 .482-.055.131-.055.192-.157.227-.362.01-.055.02-.076.045-.076.03 0 .03.04.03.076 0 .04-.04.382-.065.486-.035.132-.076.132-.271.132-.76 0-1.097-.03-1.242-.03-.026 0-.342.014-.493.014-.056 0-.08-.01-.08-.04 0-.015.01-.031.04-.031.045 0 .105-.01.15-.02.102-.02.126-.13.146-.275.026-.21.026-.609.026-1.091v-.885zm1.457-2.143c.026.045 0 .06-.02.06-.015 0-.065-.01-.15 0-.247.025-.598.14-.765.21a.352.352 0 0 1-.075.026c-.01 0-.025-.011-.025-.031 0-.015.01-.025.035-.04.181-.124.649-.407.684-.427.085-.05.116-.066.14-.066.016 0 .026.01.05.046.036.05.071.12.126.222z" fill="#1A1919" mask="url(#b)"/>
    </g>
    <path d="M3.77 25.85c-.457-.446-.57-1.025-.57-1.51 0-.343.108-.94.528-1.395.283-.304.712-.545 1.437-.545.189 0 .453.016.683.061.18.036.33.067.481.076.052.005.061.026.061.057 0 .041-.014.102-.023.286-.01.168-.01.448-.014.525-.005.077-.014.108-.043.108-.032 0-.038-.036-.038-.108 0-.2-.075-.408-.198-.521-.164-.151-.527-.29-.942-.29-.627 0-.92.2-1.083.371-.345.358-.425.812-.425 1.333 0 .975.693 1.868 1.701 1.868.354 0 .632-.045.82-.256.1-.113.16-.336.175-.429.01-.056.019-.077.047-.077.023 0 .033.036.033.077 0 .037-.057.48-.104.655-.028.095-.037.105-.123.145-.188.083-.546.119-.848.119-.707 0-1.182-.19-1.555-.55M7.2 24.396c0 .918.58 2.004 1.972 2.004 1.225 0 2.028-.945 2.028-2.087 0-1.188-.854-1.913-1.997-1.913C7.8 22.4 7.2 23.569 7.2 24.396zm.483-.144c0-1.116.635-1.679 1.484-1.679.803 0 1.545.66 1.545 1.884 0 1.484-.945 1.75-1.403 1.75-.914 0-1.626-.767-1.626-1.955zM12.864 24.868c0 .773.02 1.11.111 1.206.081.084.213.122.607.122.268 0 .49-.006.611-.16a.75.75 0 0 0 .131-.315c.005-.042.015-.068.046-.068.025 0 .03.02.03.08 0 .056-.035.373-.076.525-.035.121-.05.142-.318.142-.728 0-1.061-.032-1.354-.032-.046 0-.344.016-.496.016-.055 0-.08-.011-.08-.042 0-.016.01-.033.04-.033.046 0 .107-.01.152-.02.101-.022.126-.136.146-.289.026-.22.026-.638.026-1.143v-.927c0-.822 0-.97-.01-1.139-.01-.179-.051-.264-.217-.3a.93.93 0 0 0-.173-.017c-.02 0-.04-.01-.04-.031 0-.032.025-.043.081-.043.227 0 .545.016.57.016.026 0 .395-.016.547-.016.055 0 .08.011.08.043 0 .022-.02.031-.04.031-.035 0-.106.006-.167.017-.146.026-.187.116-.197.3-.01.169-.01.317-.01 1.139v.938M14.87 23.955c0-.814 0-.961-.01-1.128-.01-.177-.054-.26-.232-.297a1.067 1.067 0 0 0-.185-.017c-.022 0-.043-.009-.043-.03 0-.032.027-.043.086-.043.245 0 .585.016.612.016.039 0 1.117 0 1.242-.005.103-.005.19-.016.233-.026.027-.005.048-.025.076-.025.016 0 .021.02.021.046 0 .037-.026.1-.043.246-.006.052-.016.281-.027.344-.006.026-.016.058-.038.058-.032 0-.043-.027-.043-.068a.537.537 0 0 0-.033-.189c-.038-.083-.092-.145-.385-.175a17.434 17.434 0 0 0-.742-.017c-.022 0-.033.017-.033.053v1.438c0 .037.006.052.033.052.07 0 .738 0 .861-.01.13-.01.207-.022.255-.073.039-.04.06-.067.081-.067.017 0 .028.011.028.042 0 .029-.028.119-.043.292a5.533 5.533 0 0 0-.022.332c0 .043 0 .1-.038.1-.027 0-.038-.02-.038-.047 0-.053 0-.105-.022-.173-.022-.072-.07-.16-.282-.18a13.993 13.993 0 0 0-.774-.027c-.028 0-.039.015-.039.036v.46c0 .175-.005.781 0 .892.017.36.098.427.63.427.14 0 .378 0 .519-.057.142-.058.206-.163.244-.375.011-.058.022-.08.049-.08.032 0 .032.042.032.08 0 .04-.043.395-.07.504-.038.136-.081.136-.293.136-.818 0-1.18-.032-1.339-.032-.027 0-.367.016-.53.016-.06 0-.087-.01-.087-.042 0-.015.011-.032.043-.032.05 0 .115-.01.163-.02.108-.022.136-.135.157-.286.027-.219.027-.631.027-1.131v-.918M19.626 23.936c0-.825 0-.974-.01-1.143-.01-.18-.05-.265-.21-.302a.85.85 0 0 0-.167-.017c-.02 0-.039-.009-.039-.03 0-.033.025-.044.078-.044.22 0 .513.016.553.016.107 0 .39-.016.615-.016.612 0 .831.225.91.302.107.111.244.35.244.63 0 .751-.508 1.259-1.203 1.259-.024 0-.077 0-.102-.006-.024 0-.054-.01-.054-.037 0-.04.03-.046.132-.046a.845.845 0 0 0 .846-.863c0-.174-.015-.528-.274-.815-.26-.285-.557-.264-.67-.264a.563.563 0 0 0-.21.032c-.029.01-.039.047-.039.1v2.175c0 .508 0 .926.025 1.148.014.153.043.268.19.29.069.01.176.02.22.02.03 0 .04.017.04.033 0 .026-.025.042-.079.042-.269 0-.577-.016-.601-.016-.015 0-.323.016-.469.016-.054 0-.079-.01-.079-.042 0-.016.01-.033.04-.033.044 0 .102-.01.146-.02.098-.022.122-.137.142-.29.025-.222.025-.64.025-1.148v-.93M22.4 24.396c0 .918.58 2.004 1.972 2.004 1.225 0 2.028-.945 2.028-2.087 0-1.188-.854-1.913-1.997-1.913-1.403 0-2.003 1.169-2.003 1.996zm.483-.144c0-1.116.635-1.679 1.484-1.679.803 0 1.545.66 1.545 1.884 0 1.484-.945 1.75-1.403 1.75-.915 0-1.626-.767-1.626-1.955zM28.065 24.868c0 .773.02 1.11.11 1.206.081.084.213.122.607.122.268 0 .49-.006.611-.16a.745.745 0 0 0 .131-.315c.005-.042.016-.068.046-.068.025 0 .03.02.03.08 0 .056-.035.373-.076.525-.035.121-.05.142-.318.142-.727 0-1.06-.032-1.354-.032-.045 0-.343.016-.495.016-.055 0-.08-.011-.08-.042 0-.016.01-.033.04-.033.045 0 .106-.01.152-.02.1-.022.126-.136.146-.289.025-.22.025-.638.025-1.143v-.927c0-.822 0-.97-.01-1.139-.01-.179-.05-.264-.217-.3a.911.911 0 0 0-.172-.017c-.02 0-.041-.01-.041-.031 0-.032.026-.043.081-.043.228 0 .546.016.571.016.026 0 .395-.016.546-.016.056 0 .08.011.08.043 0 .022-.02.031-.04.031-.035 0-.106.006-.167.017-.146.026-.186.116-.196.3-.01.169-.01.317-.01 1.139v.938M30.573 25.03c0-.286-.056-.402-.128-.554a38.769 38.769 0 0 0-.975-1.525 1.545 1.545 0 0 0-.377-.39.538.538 0 0 0-.238-.087c-.028 0-.055-.009-.055-.036 0-.022.022-.038.072-.038.105 0 .52.016.548.016.039 0 .25-.016.465-.016.062 0 .073.016.073.038s-.034.027-.084.048c-.044.02-.071.053-.071.094a.44.44 0 0 0 .071.208c.089.152.92 1.518 1.02 1.672.105-.223.809-1.38.92-1.556a.495.495 0 0 0 .093-.27c0-.074-.021-.132-.088-.148-.05-.017-.083-.026-.083-.054 0-.02.034-.032.089-.032.144 0 .32.016.365.016.034 0 .432-.016.537-.016.04 0 .073.011.073.032 0 .028-.028.042-.073.042a.54.54 0 0 0-.254.076c-.111.063-.172.127-.294.268-.182.213-.959 1.456-1.059 1.684-.082.19-.082.355-.082.527v.456c0 .084 0 .308.016.53.012.153.061.268.228.29.077.01.199.02.25.02.032 0 .043.017.043.033 0 .026-.027.042-.088.042-.305 0-.654-.016-.682-.016-.028 0-.377.016-.543.016-.061 0-.088-.01-.088-.042 0-.016.01-.033.043-.033.051 0 .117-.01.167-.02.111-.022.16-.137.172-.29.017-.222.017-.446.017-.53v-.456M34.648 24.895c0 .498 0 .909.024 1.127.015.15.046.263.198.284.07.01.181.02.226.02.03 0 .04.017.04.033 0 .025-.025.041-.08.041-.277 0-.594-.016-.62-.016-.025 0-.343.016-.495.016-.056 0-.081-.01-.081-.041 0-.016.01-.033.04-.033.046 0 .107-.01.152-.02.1-.02.127-.134.146-.284.026-.218.026-.63.026-1.127v-2.198l-.748.01c-.312.006-.433.042-.514.166-.056.088-.07.125-.086.161-.015.042-.03.052-.05.052-.016 0-.026-.015-.026-.047 0-.052.101-.5.111-.54.01-.033.03-.099.051-.099.035 0 .086.051.223.062.145.015.337.026.398.026h1.892c.323 0 .458-.051.5-.051.025 0 .025.03.025.061 0 .156-.015.515-.015.573 0 .046-.015.068-.036.068-.025 0-.035-.016-.04-.089l-.006-.058c-.018-.155-.134-.274-.619-.285l-.636-.01v2.198M37.27 23.955c0-.814 0-.961-.01-1.128-.01-.177-.053-.26-.233-.297a1.058 1.058 0 0 0-.185-.017c-.021 0-.042-.009-.042-.03 0-.032.025-.043.086-.043.243 0 .585.016.612.016.04 0 1.117 0 1.242-.005.102-.005.19-.016.234-.026.027-.005.049-.025.076-.025.015 0 .02.02.02.046 0 .037-.027.1-.042.246-.005.052-.016.281-.027.344-.006.026-.016.058-.038.058-.033 0-.045-.027-.045-.068a.525.525 0 0 0-.032-.189c-.037-.083-.092-.145-.384-.175a17.531 17.531 0 0 0-.744-.017c-.021 0-.032.017-.032.053v1.438c0 .037.005.052.032.052.07 0 .739 0 .863-.01.13-.01.206-.022.255-.073.038-.04.06-.067.082-.067.016 0 .027.011.027.042 0 .029-.027.119-.044.292-.01.105-.023.295-.023.332 0 .043 0 .1-.037.1-.028 0-.039-.02-.039-.047 0-.053 0-.105-.02-.173-.022-.072-.072-.16-.283-.18a14.005 14.005 0 0 0-.775-.027c-.027 0-.038.015-.038.036v.46c0 .175-.005.781 0 .892.016.36.097.427.628.427.143 0 .379 0 .522-.057.142-.058.206-.163.243-.375.012-.058.023-.08.049-.08.032 0 .032.042.032.08 0 .04-.043.395-.07.504-.038.136-.08.136-.293.136-.818 0-1.18-.032-1.339-.032-.027 0-.369.016-.532.016-.058 0-.085-.01-.085-.042 0-.015.011-.032.042-.032.049 0 .114-.01.164-.02.109-.022.136-.135.157-.286.027-.219.027-.631.027-1.131v-.918M39.77 25.85c-.457-.446-.57-1.025-.57-1.51 0-.343.108-.94.527-1.395.284-.304.713-.545 1.44-.545.188 0 .45.016.684.061.177.036.329.067.48.076.05.005.06.026.06.057 0 .041-.014.102-.022.286-.011.168-.011.448-.015.525-.004.077-.014.108-.041.108-.034 0-.038-.036-.038-.108 0-.2-.076-.408-.199-.521-.164-.151-.527-.29-.942-.29-.628 0-.92.2-1.086.371-.344.358-.423.812-.423 1.333 0 .975.693 1.868 1.7 1.868.354 0 .633-.045.82-.256.102-.113.163-.336.177-.429.01-.056.018-.077.047-.077.022 0 .031.036.031.077 0 .037-.055.48-.102.655-.028.095-.037.105-.123.145-.19.083-.548.119-.85.119-.706 0-1.182-.19-1.555-.55M47.508 24.867c0 .508 0 .926.025 1.148.015.153.047.268.2.29.069.01.18.02.227.02.031 0 .04.017.04.033 0 .026-.025.042-.08.042-.28 0-.6-.016-.624-.016-.026 0-.346.016-.5.016-.055 0-.08-.01-.08-.042 0-.016.01-.033.04-.033a.77.77 0 0 0 .154-.02c.1-.022.125-.137.146-.29.026-.222.026-.64.026-1.148v-.557c0-.02-.016-.03-.031-.03h-2.153c-.016 0-.03.004-.03.03v.557c0 .508 0 .926.024 1.148.016.153.046.268.2.29.072.01.182.02.227.02.03 0 .042.017.042.033 0 .026-.027.042-.082.042-.279 0-.599-.016-.624-.016-.025 0-.345.016-.497.016-.057 0-.083-.01-.083-.042 0-.016.011-.033.042-.033.045 0 .106-.01.152-.02.103-.022.128-.137.148-.29.025-.222.025-.64.025-1.148v-.93c0-.826 0-.975-.01-1.144-.01-.18-.05-.265-.219-.302a.928.928 0 0 0-.173-.017c-.02 0-.04-.009-.04-.03 0-.033.025-.044.08-.044.23 0 .55.016.575.016.025 0 .345-.016.498-.016.057 0 .082.011.082.043 0 .022-.021.031-.04.031-.037 0-.068.007-.129.017-.138.027-.178.117-.189.302-.009.169-.009.318-.009 1.143v.111c0 .026.014.03.03.03h2.153c.015 0 .031-.004.031-.03v-.11c0-.826 0-.975-.011-1.144-.01-.18-.05-.265-.217-.302a.952.952 0 0 0-.173-.017c-.021 0-.042-.009-.042-.03 0-.033.026-.044.082-.044.229 0 .55.016.575.016.025 0 .344-.016.496-.016.056 0 .08.011.08.043 0 .022-.02.031-.04.031-.035 0-.064.007-.124.017-.14.027-.18.117-.19.302-.01.169-.01.318-.01 1.143v.931M48.692 25.664c.01.423.058.556.194.597.095.026.204.03.248.03.025 0 .039.01.039.032 0 .03-.03.041-.088.041-.284 0-.482-.015-.527-.015-.046 0-.254.015-.478.015-.05 0-.08-.004-.08-.04 0-.022.014-.033.04-.033.04 0 .13-.004.205-.03.123-.035.148-.184.148-.653l.006-2.95c0-.202.014-.258.054-.258s.125.113.175.165c.074.087.816.917 1.581 1.766.493.547 1.035 1.173 1.194 1.345l-.055-2.617c-.004-.334-.04-.448-.193-.49a1.321 1.321 0 0 0-.245-.026c-.034 0-.04-.014-.04-.035 0-.031.04-.037.1-.037.223 0 .463.016.518.016.055 0 .219-.016.423-.016.054 0 .089.006.089.037 0 .02-.02.035-.054.035-.025 0-.06 0-.12.017-.165.035-.185.15-.185.458l-.01 3.017c0 .34-.01.365-.045.365-.038 0-.097-.056-.363-.33a59.14 59.14 0 0 1-1.297-1.394 86.347 86.347 0 0 1-1.298-1.478l.064 2.466M54.594 24.867c0 .508 0 .926.031 1.148.019.153.057.268.245.29.087.01.225.02.28.02.038 0 .05.017.05.033 0 .026-.031.042-.1.042-.344 0-.737-.016-.768-.016-.031 0-.424.016-.613.016-.07 0-.1-.01-.1-.042 0-.016.012-.033.05-.033.056 0 .132-.01.188-.02.124-.022.157-.137.18-.29.03-.222.03-.64.03-1.148v-.93c0-.826 0-.975-.01-1.144-.012-.18-.076-.27-.212-.297a1.021 1.021 0 0 0-.195-.022c-.025 0-.05-.009-.05-.03 0-.033.031-.044.1-.044.208 0 .6.016.632.016.031 0 .424-.016.614-.016.068 0 .099.011.099.043 0 .022-.027.031-.05.031-.044 0-.08.007-.156.017-.171.027-.22.117-.233.302-.012.169-.012.318-.012 1.143v.931M58.748 26.54c.802.439 1.44.66 2.041.66.734 0 1.289-.212 1.57-.339.03-.016.041-.03.041-.049 0-.014-.01-.03-.03-.03-.016 0-.04.01-.07.021a2.86 2.86 0 0 1-.976.19c-.248 0-1-.025-2.086-.578l-1.016-.521c.327-.214.878-.787.878-1.652 0-1.138-.833-1.842-1.947-1.842-1.367 0-1.953 1.125-1.953 1.922 0 .884.565 1.93 1.938 1.93.262 0 .599-.074.777-.169l.833.458zm-3.078-2.357c0-1.075.62-1.616 1.448-1.616.782 0 1.506.634 1.506 1.814 0 1.429-.922 1.684-1.368 1.684-.892 0-1.586-.738-1.586-1.882z" fill="#1A1919"/>
    <path d="M60.464 23.908c0-.81 0-.956-.01-1.122-.01-.177-.053-.26-.231-.296a1.027 1.027 0 0 0-.18-.017c-.021 0-.043-.01-.043-.03 0-.032.027-.043.085-.043.24 0 .565.016.614.016.048 0 .366-.016.527-.016.06 0 .086.011.086.042 0 .022-.022.031-.041.031-.04 0-.071.006-.136.017-.144.02-.186.114-.196.296-.01.166-.01.312-.01 1.122v.726c0 .748.17 1.071.4 1.283.26.24.501.286.805.286.325 0 .644-.15.837-.375.245-.295.309-.737.309-1.272v-.648c0-.81 0-.956-.01-1.122-.011-.177-.054-.26-.23-.296a1.04 1.04 0 0 0-.181-.017c-.023 0-.043-.01-.043-.03 0-.032.026-.043.085-.043.24 0 .535.016.567.016.037 0 .286-.016.448-.016.059 0 .084.011.084.042 0 .022-.02.031-.041.031-.037 0-.07 0-.135.017-.145.025-.187.114-.197.296-.012.166-.012.312-.012 1.122v.556c0 .559-.062 1.184-.49 1.552-.383.332-.783.384-1.1.384-.179 0-.718-.02-1.097-.369-.262-.244-.464-.608-.464-1.365v-.758M64.471 23.955c0-.814 0-.961-.01-1.128-.012-.177-.055-.26-.235-.297a1.04 1.04 0 0 0-.183-.017c-.021 0-.043-.009-.043-.03 0-.032.027-.043.086-.043.244 0 .585.016.612.016.037 0 1.117 0 1.24-.005.103-.005.19-.016.234-.026.027-.005.05-.025.076-.025.017 0 .022.02.022.046 0 .037-.027.1-.044.246-.005.052-.016.281-.027.344-.006.026-.016.058-.038.058-.033 0-.044-.027-.044-.068a.525.525 0 0 0-.032-.189c-.037-.083-.092-.145-.384-.175a17.413 17.413 0 0 0-.743-.017c-.02 0-.032.017-.032.053v1.438c0 .037.006.052.032.052.07 0 .737 0 .863-.01.13-.01.204-.022.252-.073.04-.04.06-.067.083-.067.016 0 .027.011.027.042 0 .029-.027.119-.044.292a5.135 5.135 0 0 0-.022.332c0 .043 0 .1-.038.1-.026 0-.038-.02-.038-.047 0-.053 0-.105-.02-.173-.023-.072-.07-.16-.282-.18a13.97 13.97 0 0 0-.775-.027c-.027 0-.038.015-.038.036v.46c0 .175-.005.781 0 .892.016.36.099.427.628.427.14 0 .38 0 .519-.057.143-.058.209-.163.245-.375.012-.058.023-.08.049-.08.033 0 .033.042.033.08 0 .04-.043.395-.07.504-.038.136-.082.136-.294.136-.819 0-1.18-.032-1.338-.032-.027 0-.368.016-.53.016-.06 0-.086-.01-.086-.042 0-.015.01-.032.043-.032.049 0 .113-.01.16-.02.11-.022.136-.135.16-.286.026-.219.026-.631.026-1.131v-.918M.475 29.559c0-.816 0-.962-.01-1.13-.011-.18-.055-.261-.236-.297a1.032 1.032 0 0 0-.186-.016c-.021 0-.043-.01-.043-.032 0-.032.027-.042.087-.042.246 0 .59.016.618.016.11 0 1.219 0 1.345-.006.104-.005.191-.005.24-.02.034-.01.055-.032.077-.032s.033.021.033.047c0 .037-.028.1-.044.245-.005.053-.016.284-.027.345-.005.026-.017.058-.044.058-.027 0-.038-.026-.038-.063 0-.041-.017-.13-.05-.198-.032-.068-.158-.163-.371-.168l-.843-.017c-.032 0-.049.017-.049.06v1.445c0 .033.006.047.039.047l.7-.005c.093 0 .17 0 .246-.005.131-.01.202-.026.25-.095.023-.027.04-.053.061-.053.022 0 .028.016.028.043 0 .03-.028.121-.044.291-.01.105-.022.317-.022.353 0 .045 0 .098-.038.098-.028 0-.038-.02-.038-.046-.006-.052-.012-.125-.033-.188-.028-.074-.115-.168-.285-.19-.137-.015-.732-.015-.825-.015-.027 0-.039.01-.039.047v.445c0 .503 0 .916.028 1.137.017.15.05.267.213.287.077.012.197.022.246.022.033 0 .043.016.043.031 0 .027-.026.042-.087.042-.3 0-.645-.015-.672-.015-.027 0-.372.015-.536.015-.06 0-.087-.01-.087-.042 0-.015.01-.03.044-.03.049 0 .114-.011.164-.023.109-.02.136-.136.158-.287.027-.22.027-.634.027-1.137v-.922M3.671 29.624c0-.788 0-.93-.01-1.092-.011-.174-.055-.252-.233-.288a1.051 1.051 0 0 0-.185-.015c-.021 0-.043-.01-.043-.03 0-.031.027-.041.087-.041.244 0 .585.016.612.016.037 0 1.116 0 1.24-.006.103-.005.19-.015.233-.026.027-.004.05-.025.076-.025.016 0 .022.02.022.046 0 .036-.027.096-.043.237-.006.05-.016.274-.028.333-.005.025-.016.057-.037.057-.033 0-.044-.026-.044-.066a.5.5 0 0 0-.032-.182c-.038-.082-.093-.142-.385-.173-.092-.01-.682-.015-.742-.015-.022 0-.033.015-.033.05v1.398c0 .036.006.052.033.052.07 0 .737 0 .862-.01.13-.01.205-.02.254-.071.038-.042.06-.067.081-.067.016 0 .027.01.027.041 0 .03-.027.118-.043.282-.01.102-.022.291-.022.325 0 .04 0 .095-.038.095-.026 0-.038-.02-.038-.045 0-.05 0-.1-.021-.166-.022-.07-.07-.158-.282-.177a14.899 14.899 0 0 0-.775-.026c-.027 0-.038.015-.038.036v.446c0 .173-.005.758 0 .865.017.35.098.415.629.415.14 0 .38 0 .52-.057.141-.055.206-.155.244-.363.01-.057.022-.076.048-.076.033 0 .033.04.033.076 0 .04-.043.384-.07.491C5.49 32 5.448 32 5.237 32c-.818 0-1.181-.03-1.338-.03-.027 0-.368.015-.53.015-.06 0-.088-.01-.088-.04 0-.016.011-.03.043-.03a.83.83 0 0 0 .163-.022c.108-.02.136-.132.157-.277.027-.214.027-.614.027-1.1v-.892zm1.571-2.156c.027.046 0 .061-.021.061-.016 0-.07-.01-.163 0a3.606 3.606 0 0 0-.823.214.345.345 0 0 1-.082.025.03.03 0 0 1-.027-.03c0-.016.01-.026.038-.042.196-.126.7-.41.737-.43.092-.05.125-.066.152-.066.016 0 .027.01.054.047.038.05.076.121.135.221zM6.857 30.437c0 .501 0 .914-.026 1.135-.021.15-.048.266-.153.286a.752.752 0 0 1-.157.022c-.031 0-.042.016-.042.031 0 .033.026.042.084.042.157 0 .488-.015.515-.015.052 0 .713.062 1.165.062.892 0 1.364-.367 1.59-.601.294-.308.567-.816.567-1.475 0-.621-.247-1.055-.509-1.329-.625-.642-1.585-.594-2.104-.594-.316 0-.646.016-.71.016-.026 0-.357-.016-.593-.016-.057 0-.084.01-.084.042 0 .021.022.032.042.032.048 0 .137.005.178.015.174.037.215.118.227.297.01.168.01.314.01 1.129v.92zm.441-1.005c0-.403 0-.934.005-1.113 0-.058.016-.084.063-.105.042-.02.237-.037.34-.037.626 0 1.225.074 1.718.593.215.224.504.653.504 1.316 0 .482-.147.984-.42 1.25-.31.307-.761.486-1.25.486-.619 0-.824-.11-.892-.21-.042-.057-.053-.265-.057-.397-.006-.097-.011-.579-.011-1.134v-.649zM10.87 29.624c0-.788 0-.93-.01-1.092-.01-.174-.054-.252-.232-.288a1.056 1.056 0 0 0-.185-.015c-.022 0-.043-.01-.043-.03 0-.031.027-.041.087-.041.243 0 .584.016.612.016.037 0 1.115 0 1.24-.006.103-.005.19-.015.233-.026.027-.004.049-.025.076-.025.017 0 .021.02.021.046 0 .036-.027.096-.043.237-.005.05-.016.274-.027.333-.005.025-.016.057-.037.057-.034 0-.044-.026-.044-.066a.511.511 0 0 0-.032-.182c-.038-.082-.093-.142-.385-.173-.092-.01-.683-.015-.743-.015-.021 0-.032.015-.032.05v1.398c0 .036.006.052.032.052.071 0 .738 0 .862-.01.13-.01.206-.02.255-.071.038-.042.06-.067.08-.067.017 0 .028.01.028.041 0 .03-.027.118-.044.282-.01.102-.02.291-.02.325 0 .04 0 .095-.039.095-.027 0-.038-.02-.038-.045 0-.05 0-.1-.021-.166-.022-.07-.07-.158-.282-.177a14.881 14.881 0 0 0-.775-.026c-.027 0-.038.015-.038.036v.446c0 .173-.005.758 0 .865.017.35.098.415.629.415.14 0 .379 0 .52-.057.14-.055.205-.155.243-.363.011-.057.023-.076.049-.076.033 0 .033.04.033.076 0 .04-.044.384-.07.491-.039.132-.082.132-.293.132-.818 0-1.18-.03-1.338-.03-.028 0-.37.015-.531.015-.06 0-.087-.01-.087-.04 0-.016.01-.03.043-.03.049 0 .114-.01.163-.022.108-.02.136-.132.157-.277.027-.214.027-.614.027-1.1v-.892zm1.572-2.156c.027.046 0 .061-.021.061-.017 0-.07-.01-.163 0a3.61 3.61 0 0 0-.824.214.35.35 0 0 1-.08.025.03.03 0 0 1-.028-.03c0-.016.01-.026.038-.042.195-.126.699-.41.737-.43.092-.05.125-.066.152-.066.016 0 .027.01.053.047.038.05.077.121.136.221zM14.06 30.465c0 .508 0 .926-.026 1.15-.021.151-.048.268-.154.29a.755.755 0 0 1-.158.022c-.032 0-.043.015-.043.03 0 .034.027.043.085.043.159 0 .492-.015.498-.015.025 0 .36.015.65.015.058 0 .085-.015.085-.042 0-.016-.01-.031-.042-.031-.048 0-.164-.011-.24-.023-.157-.02-.189-.138-.205-.29-.026-.223-.026-.641-.026-1.149v-.127c0-.025.01-.042.037-.042l.65.01c.032 0 .048.012.07.032.105.138.354.492.576.784.302.397.487.655.714.778.138.075.27.1.567.1h.375c.096 0 .127-.01.127-.042 0-.016-.02-.031-.048-.031-.031 0-.106 0-.206-.017-.132-.022-.36-.08-.645-.38-.307-.329-.667-.8-1.101-1.355.476-.44.64-.83.64-1.222a.929.929 0 0 0-.364-.72c-.281-.2-.636-.233-.97-.233-.163 0-.565.017-.624.017-.026 0-.36-.017-.597-.017-.059 0-.085.01-.085.043 0 .021.02.032.042.032.048 0 .138.005.18.016.175.036.217.119.227.3.011.17.011.318.011 1.142v.932zm.424-2.202c0-.03.016-.053.042-.063a1.53 1.53 0 0 1 .355-.032c.566 0 .915.398.915 1.059 0 .402-.138.687-.323.814a.673.673 0 0 1-.397.102c-.233 0-.476-.038-.555-.085-.027-.017-.037-.037-.037-.064v-1.73z" fill="#1A1919"/>
    <path d="M17.441 31.428c-.095.26-.2.458-.441.49-.042.005-.116.01-.153.01-.025 0-.047.01-.047.03 0 .033.032.042.1.042.247 0 .535-.015.593-.015.058 0 .284.015.41.015.047 0 .078-.01.078-.041 0-.02-.015-.031-.052-.031h-.052c-.09 0-.2-.048-.2-.152 0-.094.026-.216.073-.348l.315-.92c.01-.025.027-.04.053-.04h1.128c.027 0 .037.009.047.03l.489 1.278c.032.084 0 .13-.031.141-.022.006-.037.016-.037.037 0 .031.057.031.157.037.362.009.745.009.824.009.058 0 .105-.01.105-.041 0-.026-.02-.031-.053-.031a.694.694 0 0 1-.21-.031c-.11-.032-.261-.116-.45-.579-.32-.788-1.145-2.934-1.224-3.131-.063-.161-.084-.187-.115-.187-.032 0-.053.032-.115.203l-1.192 3.225zm.734-1.146c-.015 0-.026-.011-.015-.038l.462-1.403c.026-.078.052-.078.078 0l.5 1.403c.004.022.004.038-.022.038h-1.003zM21.664 30.466c0 .774.02 1.114.11 1.206.082.085.213.122.608.122.267 0 .49-.005.61-.159a.732.732 0 0 0 .132-.315c.005-.043.015-.07.046-.07.025 0 .03.022.03.08 0 .059-.036.374-.076.528-.035.122-.05.142-.318.142-.728 0-1.062-.03-1.355-.03-.045 0-.343.014-.494.014-.056 0-.082-.01-.082-.042 0-.016.01-.03.041-.03.046 0 .106-.012.152-.023.1-.02.126-.137.146-.29.026-.221.026-.638.026-1.143v-.929c0-.821 0-.968-.01-1.138-.01-.18-.051-.262-.218-.299a.886.886 0 0 0-.172-.015c-.02 0-.04-.01-.04-.032 0-.033.025-.043.081-.043.227 0 .546.017.57.017.026 0 .395-.017.546-.017.056 0 .081.01.081.043 0 .021-.02.032-.04.032-.036 0-.107.005-.167.015-.146.026-.187.114-.197.3-.01.169-.01.316-.01 1.137v.94M24.471 29.553c0-.813 0-.959-.01-1.126-.012-.179-.054-.26-.233-.296a1.017 1.017 0 0 0-.185-.016c-.021 0-.043-.01-.043-.03 0-.033.027-.043.086-.043.245 0 .586.016.613.016.037 0 1.116 0 1.24-.006.103-.005.19-.015.233-.026.027-.005.049-.026.076-.026.017 0 .022.021.022.047 0 .037-.027.1-.043.244-.006.053-.017.283-.028.344-.005.025-.016.058-.037.058-.033 0-.043-.027-.043-.068a.531.531 0 0 0-.033-.187c-.038-.085-.092-.147-.385-.178a17.431 17.431 0 0 0-.742-.017c-.022 0-.033.017-.033.053v1.44c0 .037.006.053.033.053.07 0 .737 0 .861-.01.13-.01.206-.021.254-.073.04-.043.06-.07.082-.07.016 0 .027.011.027.043 0 .031-.027.121-.043.29-.01.105-.021.3-.021.336 0 .041 0 .097-.038.097-.027 0-.039-.02-.039-.046 0-.051 0-.102-.02-.17-.023-.074-.071-.164-.283-.184a14.481 14.481 0 0 0-.775-.026c-.027 0-.038.015-.038.036v.46c0 .178-.005.781 0 .891.017.36.098.428.629.428.141 0 .379 0 .52-.058.14-.058.206-.16.244-.375.01-.058.022-.079.049-.079.032 0 .032.042.032.08 0 .041-.043.395-.07.505-.038.136-.082.136-.293.136-.818 0-1.18-.03-1.338-.03-.027 0-.368.014-.53.014-.06 0-.088-.009-.088-.041 0-.016.011-.031.043-.031.05 0 .115-.01.163-.022.109-.02.135-.136.158-.286.026-.22.026-.632.026-1.132v-.92M28.456 30.437c0 .501 0 .914-.025 1.135-.022.15-.048.266-.153.286a.762.762 0 0 1-.157.022c-.031 0-.042.016-.042.031 0 .033.026.042.083.042.158 0 .489-.015.515-.015.053 0 .714.062 1.166.062.891 0 1.364-.367 1.59-.601.294-.308.567-.816.567-1.475 0-.621-.247-1.055-.51-1.329-.624-.642-1.585-.594-2.104-.594-.315 0-.645.016-.709.016-.026 0-.357-.016-.593-.016-.058 0-.084.01-.084.042 0 .021.021.032.041.032.049 0 .138.005.18.015.172.037.215.118.225.297.01.168.01.314.01 1.129v.92zm.441-1.005c0-.403 0-.934.005-1.113 0-.058.016-.084.064-.105.041-.02.236-.037.34-.037.625 0 1.224.074 1.718.593.215.224.504.653.504 1.316 0 .482-.148.984-.42 1.25-.31.307-.762.486-1.25.486-.62 0-.824-.11-.892-.21-.042-.057-.053-.265-.058-.397-.006-.097-.011-.579-.011-1.134v-.649zM33.272 29.553c0-.813 0-.959-.011-1.126-.012-.179-.054-.26-.233-.296a1.016 1.016 0 0 0-.184-.016c-.022 0-.044-.01-.044-.03 0-.033.027-.043.087-.043.244 0 .585.016.612.016.038 0 1.116 0 1.24-.006a1.44 1.44 0 0 0 .235-.026c.026-.005.047-.026.074-.026.017 0 .023.021.023.047 0 .037-.028.1-.044.244-.006.053-.017.283-.027.344-.005.025-.016.058-.037.058-.033 0-.044-.027-.044-.068a.536.536 0 0 0-.032-.187c-.039-.085-.093-.147-.385-.178a17.49 17.49 0 0 0-.743-.017c-.021 0-.032.017-.032.053v1.44c0 .037.005.053.032.053.07 0 .737 0 .862-.01.13-.01.205-.021.255-.073.038-.043.06-.07.081-.07.017 0 .027.011.027.043 0 .031-.027.121-.043.29-.01.105-.022.3-.022.336 0 .041 0 .097-.038.097-.027 0-.039-.02-.039-.046 0-.051 0-.102-.02-.17-.023-.074-.071-.164-.282-.184a14.514 14.514 0 0 0-.775-.026c-.027 0-.038.015-.038.036v.46c0 .178-.006.781 0 .891.016.36.096.428.628.428.141 0 .38 0 .521-.058.14-.058.205-.16.243-.375.01-.058.02-.079.047-.079.034 0 .034.042.034.08 0 .041-.044.395-.071.505-.037.136-.08.136-.292.136-.818 0-1.18-.03-1.338-.03-.027 0-.368.014-.53.014-.06 0-.087-.009-.087-.041 0-.016.01-.031.042-.031.05 0 .115-.01.164-.022.108-.02.135-.136.156-.286.028-.22.028-.632.028-1.132v-.92M38.464 30.466c0 .774.02 1.114.112 1.206.08.085.211.122.606.122.267 0 .489-.005.611-.159a.727.727 0 0 0 .132-.315c.005-.043.015-.07.045-.07.025 0 .03.022.03.08 0 .059-.036.374-.075.528-.035.122-.05.142-.319.142-.727 0-1.06-.03-1.353-.03-.046 0-.344.014-.495.014-.056 0-.082-.01-.082-.042 0-.016.01-.03.04-.03.046 0 .108-.012.153-.023.1-.02.125-.137.145-.29.026-.221.026-.638.026-1.143v-.929c0-.821 0-.968-.01-1.138-.01-.18-.051-.262-.217-.299a.88.88 0 0 0-.172-.015c-.02 0-.041-.01-.041-.032 0-.033.026-.043.081-.043.228 0 .547.017.572.017.025 0 .394-.017.545-.017.055 0 .08.01.08.043 0 .021-.02.032-.04.032-.035 0-.106.005-.166.015-.147.026-.187.114-.197.3-.01.169-.01.316-.01 1.137v.94M40.643 31.428c-.096.26-.201.458-.44.49a1.62 1.62 0 0 1-.155.01c-.026 0-.048.01-.048.03 0 .033.032.042.101.042.247 0 .535-.015.594-.015.057 0 .282.015.41.015.047 0 .077-.01.077-.041 0-.02-.014-.031-.05-.031h-.054c-.09 0-.201-.048-.201-.152 0-.094.026-.216.074-.348l.314-.92c.01-.025.027-.04.053-.04h1.13c.025 0 .035.009.047.03l.486 1.278c.031.084 0 .13-.031.141-.021.006-.036.016-.036.037 0 .031.056.031.157.037.36.009.744.009.823.009.058 0 .106-.01.106-.041 0-.026-.022-.031-.053-.031a.668.668 0 0 1-.208-.031c-.112-.032-.265-.116-.452-.579-.321-.788-1.145-2.934-1.223-3.131-.062-.161-.083-.187-.115-.187s-.054.032-.116.203l-1.19 3.225zm.733-1.146c-.016 0-.026-.011-.016-.038l.462-1.403c.026-.078.053-.078.08 0l.498 1.403c.006.022.006.038-.021.038h-1.003zM44.464 29.505c0-.81 0-.954-.01-1.121-.012-.178-.053-.259-.229-.295a.997.997 0 0 0-.182-.015c-.022 0-.043-.01-.043-.032 0-.032.027-.042.086-.042.24 0 .566.017.613.017.048 0 .369-.017.527-.017.06 0 .085.01.085.042 0 .021-.02.032-.041.032a.767.767 0 0 0-.134.015c-.143.02-.187.112-.197.295-.01.167-.01.312-.01 1.121v.73c0 .748.17 1.069.399 1.282.262.239.501.286.805.286.325 0 .647-.152.837-.374.246-.296.31-.738.31-1.273v-.65c0-.81 0-.955-.01-1.122-.01-.178-.054-.259-.231-.295a.987.987 0 0 0-.18-.015c-.02 0-.042-.01-.042-.032 0-.032.026-.042.084-.042.24 0 .533.017.565.017.038 0 .289-.017.448-.017.059 0 .086.01.086.042 0 .021-.021.032-.043.032-.037 0-.07 0-.135.015-.14.025-.185.112-.195.295-.011.167-.011.312-.011 1.121v.557c0 .563-.065 1.184-.49 1.553-.385.334-.783.385-1.1.385-.18 0-.72-.02-1.097-.37-.261-.243-.465-.606-.465-1.365v-.76M48.062 31.863c-.058-.036-.062-.057-.062-.195 0-.255.016-.46.021-.54.004-.055.012-.081.034-.081.024 0 .028.015.028.056 0 .045 0 .116.013.188.063.377.337.52.615.52.399 0 .593-.35.593-.678 0-.353-.119-.556-.477-.918l-.187-.19c-.44-.443-.54-.76-.54-1.106 0-.546.333-.919.86-.919.162 0 .283.02.386.052.08.02.113.025.146.025.033 0 .043.011.043.036 0 .026-.018.193-.018.539 0 .083-.008.118-.03.118-.024 0-.028-.026-.032-.067a1.078 1.078 0 0 0-.055-.254c-.025-.056-.137-.27-.517-.27-.289 0-.514.219-.514.591 0 .29.117.464.51.857l.114.113c.49.475.607.791.607 1.198 0 .21-.065.6-.353.848a.943.943 0 0 1-.627.214 1.07 1.07 0 0 1-.558-.137M51.04 31.428c-.094.26-.2.458-.442.49-.042.005-.114.01-.15.01-.027 0-.048.01-.048.03 0 .033.031.042.1.042.246 0 .533-.015.592-.015.057 0 .285.015.409.015.047 0 .078-.01.078-.041 0-.02-.016-.031-.051-.031h-.054c-.088 0-.197-.048-.197-.152 0-.094.026-.216.073-.348l.315-.92c.01-.025.027-.04.053-.04h1.127c.026 0 .036.009.047.03l.488 1.278c.032.084 0 .13-.031.141-.02.006-.038.016-.038.037 0 .031.059.031.16.037.361.009.744.009.824.009.058 0 .105-.01.105-.041 0-.026-.022-.031-.053-.031a.692.692 0 0 1-.21-.031c-.111-.032-.263-.116-.453-.579-.32-.788-1.143-2.934-1.223-3.131-.062-.161-.084-.187-.115-.187-.03 0-.052.032-.114.203l-1.192 3.225zm.735-1.146c-.015 0-.026-.011-.015-.038l.462-1.403c.026-.078.051-.078.076 0l.5 1.403c.005.022.005.038-.022.038h-1zM55.092 31.263c.01.422.06.557.194.599.095.025.204.03.248.03.025 0 .04.01.04.03 0 .033-.03.042-.089.042-.284 0-.482-.015-.527-.015-.045 0-.254.015-.478.015-.05 0-.08-.005-.08-.041 0-.02.015-.03.04-.03.04 0 .13-.006.204-.031.123-.037.15-.188.15-.655l.003-2.95c0-.2.016-.257.055-.257.04 0 .126.114.176.166.075.085.816.914 1.58 1.765.494.544 1.034 1.174 1.195 1.342l-.055-2.615c-.006-.334-.04-.447-.193-.487a1.285 1.285 0 0 0-.246-.026c-.034 0-.04-.015-.04-.036 0-.031.04-.037.1-.037.224 0 .464.017.52.017.054 0 .216-.017.422-.017.054 0 .089.006.089.037 0 .02-.02.036-.055.036-.024 0-.06 0-.12.016-.164.035-.184.147-.184.457l-.01 3.016c0 .34-.01.366-.044.366-.039 0-.099-.056-.363-.33a60.197 60.197 0 0 1-1.3-1.394 97.643 97.643 0 0 1-1.296-1.478l.064 2.465M59.89 31.263c.01.422.061.557.196.599.094.025.203.03.249.03.024 0 .04.01.04.03 0 .033-.03.042-.092.042-.282 0-.482-.015-.526-.015-.045 0-.254.015-.478.015-.05 0-.079-.005-.079-.041 0-.02.015-.03.04-.03.04 0 .128-.006.203-.031.124-.037.15-.188.15-.655l.005-2.95c0-.2.015-.257.055-.257s.124.114.173.166c.075.085.817.914 1.583 1.765.492.544 1.036 1.174 1.195 1.342l-.054-2.615c-.005-.334-.04-.447-.195-.487a1.277 1.277 0 0 0-.243-.026c-.035 0-.04-.015-.04-.036 0-.031.04-.037.1-.037.223 0 .462.017.516.017.055 0 .219-.017.423-.017.054 0 .089.006.089.037 0 .02-.019.036-.055.036-.025 0-.06 0-.118.016-.164.035-.184.147-.184.457l-.01 3.016c0 .34-.01.366-.045.366-.04 0-.1-.056-.362-.33a62.082 62.082 0 0 1-2.6-2.872l.064 2.465M64.471 29.553c0-.813 0-.959-.01-1.126-.012-.179-.055-.26-.234-.296a1.013 1.013 0 0 0-.184-.016c-.022 0-.043-.01-.043-.03 0-.033.027-.043.086-.043.243 0 .586.016.613.016.037 0 1.116 0 1.24-.006a1.45 1.45 0 0 0 .233-.026c.026-.005.048-.026.076-.026.016 0 .022.021.022.047 0 .037-.027.1-.045.244-.005.053-.016.283-.027.344-.005.025-.016.058-.038.058-.033 0-.043-.027-.043-.068a.575.575 0 0 0-.032-.187c-.038-.085-.092-.147-.386-.178-.091-.012-.68-.017-.74-.017-.022 0-.033.017-.033.053v1.44c0 .037.006.053.033.053.07 0 .735 0 .861-.01.13-.01.206-.021.255-.073.036-.043.058-.07.08-.07.017 0 .027.011.027.043 0 .031-.027.121-.043.29-.012.105-.022.3-.022.336 0 .041 0 .097-.037.097-.028 0-.039-.02-.039-.046 0-.051 0-.102-.021-.17-.021-.074-.07-.164-.282-.184a14.473 14.473 0 0 0-.773-.026c-.028 0-.039.015-.039.036v.46c0 .178-.006.781 0 .891.016.36.099.428.63.428.138 0 .378 0 .519-.058.14-.058.205-.16.244-.375.01-.058.02-.079.049-.079.032 0 .032.042.032.08 0 .041-.044.395-.071.505-.038.136-.08.136-.293.136-.819 0-1.181-.03-1.337-.03-.027 0-.37.014-.53.014-.06 0-.087-.009-.087-.041 0-.016.01-.031.042-.031.049 0 .114-.01.163-.022.108-.02.135-.136.156-.286.028-.22.028-.632.028-1.132v-.92" fill="#1A1919"/>
  </g>
</svg>
