<?xml version="1.0" standalone="no"?>
<!DOCTYPE svg PUBLIC "-//W3C//DTD SVG 20010904//EN"
 "http://www.w3.org/TR/2001/REC-SVG-20010904/DTD/svg10.dtd">
<svg version="1.0" xmlns="http://www.w3.org/2000/svg"
 width="417.000000pt" height="417.000000pt" viewBox="0 0 417.000000 417.000000"
 preserveAspectRatio="xMidYMid meet">
<metadata>
Created by potrace 1.11, written by Peter Selinger 2001-2013
</metadata>
<g transform="translate(0.000000,417.000000) scale(0.100000,-0.100000)"
fill="#000000" stroke="none">
<path d="M2050 3494 c-105 -28 -192 -108 -235 -214 -13 -34 -18 -76 -19 -175
-2 -143 -11 -173 -68 -226 -58 -52 -179 -63 -307 -27 -201 56 -413 4 -571
-138 -23 -21 -68 -76 -100 -124 -68 -99 -102 -127 -165 -139 -25 -5 -46 -9
-48 -10 -6 -4 -113 33 -133 45 -12 8 -24 28 -27 44 -9 40 -71 106 -114 121
-92 30 -208 -15 -244 -96 -63 -138 46 -295 193 -279 18 2 60 16 93 30 78 35
181 38 240 7 66 -35 103 -85 130 -178 36 -126 91 -216 184 -303 61 -58 114
-88 234 -134 120 -45 167 -75 206 -128 62 -86 62 -186 -1 -298 -124 -220 75
-468 316 -395 71 21 147 100 168 174 37 130 -17 260 -133 319 -44 23 -103 94
-131 157 -45 101 -17 182 89 260 35 25 63 49 63 53 0 12 93 57 150 73 56 15
150 31 250 43 48 5 620 15 620 11 0 -1 -32 -85 -71 -187 -39 -102 -73 -195
-76 -207 -3 -12 -13 -25 -22 -27 -9 -3 -88 -5 -176 -4 -181 2 -207 -6 -245
-67 -30 -49 -36 -130 -13 -174 31 -59 78 -75 228 -79 71 -2 131 -4 132 -6 2
-1 -27 -90 -63 -197 -84 -249 -85 -303 -8 -335 96 -40 213 -4 252 78 24 50
120 356 129 411 3 20 9 39 13 42 10 6 330 9 336 2 6 -5 -68 -300 -86 -343 -5
-12 -11 -42 -15 -66 -13 -89 42 -142 148 -141 72 1 125 24 155 67 13 19 48
127 84 257 34 123 63 226 65 229 2 2 93 5 201 5 182 1 200 2 243 23 59 29 92
85 92 158 0 61 -19 96 -66 121 -26 13 -64 17 -214 17 -109 1 -183 5 -183 11 0
5 15 57 34 115 18 58 46 146 62 195 15 50 31 94 35 99 4 4 100 9 213 11 l207
2 29 28 c35 33 49 72 55 149 9 122 -16 136 -255 136 -185 0 -182 -1 -159 57
36 91 100 314 100 350 1 86 -19 103 -129 108 -84 4 -136 -14 -164 -57 -8 -13
-46 -121 -84 -240 l-69 -218 -164 0 c-129 0 -162 3 -158 13 4 11 45 154 86
304 5 18 8 52 7 77 -3 81 -71 123 -183 114 -59 -5 -83 -22 -108 -75 -14 -29
-111 -366 -119 -413 -4 -24 -531 -23 -670 1 -184 32 -238 61 -261 139 -4 14
-20 52 -36 85 -37 79 -41 114 -19 162 24 54 79 92 160 111 14 3 75 5 135 4
178 -2 270 35 348 141 146 196 46 481 -189 542 -71 18 -112 18 -184 -1z m1280
-1530 c0 -4 -28 -86 -61 -183 -34 -97 -66 -190 -72 -208 l-10 -32 -169 1 c-92
1 -168 5 -168 9 0 5 6 23 14 41 13 28 103 262 135 351 l11 27 160 0 c88 0 160
-3 160 -6z"/>
</g>
</svg>
