<?xml version="1.0" standalone="no"?>
<!DOCTYPE svg PUBLIC "-//W3C//DTD SVG 20010904//EN"
 "http://www.w3.org/TR/2001/REC-SVG-20010904/DTD/svg10.dtd">
<svg version="1.0" xmlns="http://www.w3.org/2000/svg"
 width="700.000000pt" height="700.000000pt" viewBox="0 0 700.000000 700.000000"
 preserveAspectRatio="xMidYMid meet">
<metadata>
Created by potrace 1.11, written by Peter Selinger 2001-2013
</metadata>
<g transform="translate(0.000000,700.000000) scale(0.100000,-0.100000)"
fill="#000000" stroke="none">
<path d="M2175 6987 c-59 -23 -92 -46 -119 -82 -55 -71 -58 -95 -54 -428 l3
-305 40 -58 c29 -41 54 -65 90 -84 l49 -25 316 0 c312 0 315 0 364 24 52 26
101 85 124 148 9 27 11 117 10 342 -3 343 -2 336 -79 411 -67 65 -91 69 -422
69 -202 0 -301 -4 -322 -12z"/>
<path d="M4162 6983 c-58 -20 -126 -91 -146 -151 -14 -41 -16 -97 -16 -334 1
-167 5 -300 12 -320 17 -55 60 -111 113 -143 l48 -30 321 0 321 0 49 25 c53
26 102 85 123 146 9 25 12 123 12 324 0 329 -4 352 -73 423 -70 72 -92 76
-429 76 -236 0 -300 -3 -335 -16z"/>
<path d="M175 4987 c-58 -23 -92 -46 -119 -81 -54 -71 -56 -92 -54 -426 l3
-306 29 -45 c16 -24 43 -56 60 -71 59 -53 91 -57 406 -57 330 0 356 4 425 74
72 71 75 94 72 439 -2 338 -3 343 -79 417 -66 64 -92 68 -421 68 -196 -1 -302
-5 -322 -12z"/>
<path d="M2160 4982 c-58 -22 -124 -89 -144 -148 -23 -67 -23 -601 0 -668 19
-56 65 -107 124 -137 44 -23 52 -24 346 -26 345 -3 368 0 439 72 70 69 74 95
74 425 0 332 -3 354 -75 425 -72 70 -92 74 -427 74 -250 0 -299 -3 -337 -17z"/>
<path d="M4163 4984 c-60 -22 -126 -89 -146 -149 -15 -42 -17 -91 -15 -355 3
-302 3 -305 27 -345 32 -52 60 -80 113 -107 42 -22 53 -23 344 -25 347 -3 369
0 440 74 69 70 73 93 73 416 1 155 -3 299 -8 320 -13 56 -56 112 -114 149
l-51 33 -311 2 c-258 2 -317 0 -352 -13z"/>
<path d="M6162 4983 c-58 -20 -126 -91 -146 -151 -14 -41 -16 -97 -16 -335 1
-323 6 -349 69 -415 74 -76 79 -77 417 -79 345 -3 368 0 439 72 69 69 74 94
75 418 1 329 -4 359 -73 430 -71 72 -92 76 -430 76 -236 0 -300 -3 -335 -16z"/>
<path d="M165 2984 c-57 -20 -106 -64 -135 -120 -25 -49 -25 -51 -27 -351 -3
-323 0 -347 49 -413 12 -17 45 -45 72 -63 l51 -32 305 -3 c353 -3 374 1 446
75 69 70 73 93 74 416 1 329 -4 359 -73 430 -71 73 -93 76 -430 76 -225 -1
-301 -4 -332 -15z"/>
<path d="M2175 2988 c-48 -18 -101 -55 -124 -87 -47 -65 -50 -94 -50 -401 0
-329 4 -352 73 -423 70 -72 93 -76 426 -76 330 0 356 4 425 74 70 69 74 95 74
425 0 332 -3 354 -75 425 -72 70 -92 74 -427 74 -186 0 -303 -4 -322 -11z"/>
<path d="M4162 2984 c-23 -9 -62 -35 -86 -60 -72 -71 -75 -92 -75 -424 0 -327
4 -355 70 -421 75 -75 69 -74 410 -77 335 -2 362 1 430 57 19 16 45 50 59 77
25 49 25 51 27 350 3 331 0 351 -56 423 -16 20 -51 48 -78 61 -48 25 -50 25
-353 27 -253 2 -312 -1 -348 -13z"/>
<path d="M6167 2984 c-57 -20 -110 -66 -137 -121 l-25 -48 0 -322 0 -321 40
-58 c29 -41 54 -65 90 -84 49 -25 50 -25 348 -28 344 -4 367 0 440 72 72 70
76 93 76 426 0 329 -4 352 -73 423 -70 72 -93 76 -429 76 -223 -1 -301 -4
-330 -15z"/>
<path d="M2185 993 c-38 -10 -104 -54 -130 -88 -51 -68 -54 -93 -54 -405 0
-331 3 -352 74 -424 71 -72 92 -75 431 -75 l295 0 55 26 c63 30 107 78 128
141 22 63 22 600 1 664 -18 52 -55 96 -114 134 l-45 29 -310 1 c-171 1 -320 0
-331 -3z"/>
<path d="M4163 984 c-60 -22 -126 -89 -146 -149 -15 -42 -17 -91 -15 -355 l3
-305 32 -51 c18 -27 46 -60 63 -72 64 -48 91 -51 406 -51 295 0 295 0 348 25
62 29 85 52 118 114 22 44 23 52 25 346 2 221 0 311 -10 337 -21 62 -70 120
-123 147 -49 25 -50 25 -354 27 -252 2 -312 -1 -347 -13z"/>
</g>
</svg>
